<mxfile host="app.diagrams.net" modified="2024-02-19T02:25:34.125Z" agent="Mozilla/5.0 (Windows NT 10.0; Win64; x64) AppleWebKit/537.36 (KHTML, like Gecko) Chrome/121.0.0.0 Safari/537.36 Edg/121.0.0.0" etag="8q6TGxnYSTHllc1It6Bs" version="23.1.5" type="github">
  <diagram id="07fea595-8f29-1299-0266-81d95cde20df" name="Page-1">
    <mxGraphModel dx="1386" dy="785" grid="1" gridSize="10" guides="1" tooltips="1" connect="1" arrows="1" fold="1" page="1" pageScale="1" pageWidth="1169" pageHeight="827" background="none" math="0" shadow="0">
      <root>
        <mxCell id="0" />
        <mxCell id="1" parent="0" />
        <mxCell id="ywrrDu13jEAEhH4SM_dy-760" value="hit" style="ellipse;aspect=fixed;fillColor=#bfccdf;strokeColor=#6c8ebf;align=center;spacing=0;fontSize=16;" vertex="1" parent="1">
          <mxGeometry x="510" y="100" width="50" height="50" as="geometry" />
        </mxCell>
        <mxCell id="ywrrDu13jEAEhH4SM_dy-763" value="" style="endArrow=classic;html=1;rounded=0;exitX=0.5;exitY=1;exitDx=0;exitDy=0;entryX=0.5;entryY=0;entryDx=0;entryDy=0;" edge="1" parent="1" source="ywrrDu13jEAEhH4SM_dy-760" target="ywrrDu13jEAEhH4SM_dy-779">
          <mxGeometry width="50" height="50" relative="1" as="geometry">
            <mxPoint x="580" y="380" as="sourcePoint" />
            <mxPoint x="250" y="210" as="targetPoint" />
          </mxGeometry>
        </mxCell>
        <mxCell id="ywrrDu13jEAEhH4SM_dy-778" value="cog" style="ellipse;aspect=fixed;fillColor=#fff2cc;strokeColor=#d6b656;align=center;spacing=0;fontSize=16;" vertex="1" parent="1">
          <mxGeometry x="410" y="460" width="50" height="50" as="geometry" />
        </mxCell>
        <mxCell id="ywrrDu13jEAEhH4SM_dy-779" value="hot" style="ellipse;aspect=fixed;fillColor=#bfccdf;strokeColor=#6c8ebf;align=center;spacing=0;fontSize=16;" vertex="1" parent="1">
          <mxGeometry x="510" y="200" width="50" height="50" as="geometry" />
        </mxCell>
        <mxCell id="ywrrDu13jEAEhH4SM_dy-780" value="dot" style="ellipse;aspect=fixed;fillColor=#bfccdf;strokeColor=#6c8ebf;align=center;spacing=0;fontSize=16;" vertex="1" parent="1">
          <mxGeometry x="410" y="280" width="50" height="50" as="geometry" />
        </mxCell>
        <mxCell id="ywrrDu13jEAEhH4SM_dy-781" value="lot" style="ellipse;aspect=fixed;fillColor=#bfccdf;strokeColor=#6c8ebf;align=center;spacing=0;fontSize=16;" vertex="1" parent="1">
          <mxGeometry x="620" y="280" width="50" height="50" as="geometry" />
        </mxCell>
        <mxCell id="ywrrDu13jEAEhH4SM_dy-784" value="" style="endArrow=classic;html=1;rounded=0;entryX=0.5;entryY=0;entryDx=0;entryDy=0;exitX=0;exitY=1;exitDx=0;exitDy=0;" edge="1" parent="1" source="ywrrDu13jEAEhH4SM_dy-779" target="ywrrDu13jEAEhH4SM_dy-780">
          <mxGeometry width="50" height="50" relative="1" as="geometry">
            <mxPoint x="120" y="260" as="sourcePoint" />
            <mxPoint x="170" y="210" as="targetPoint" />
          </mxGeometry>
        </mxCell>
        <mxCell id="ywrrDu13jEAEhH4SM_dy-785" value="" style="endArrow=classic;html=1;rounded=0;exitX=1;exitY=1;exitDx=0;exitDy=0;entryX=0.5;entryY=0;entryDx=0;entryDy=0;" edge="1" parent="1" source="ywrrDu13jEAEhH4SM_dy-779" target="ywrrDu13jEAEhH4SM_dy-781">
          <mxGeometry width="50" height="50" relative="1" as="geometry">
            <mxPoint x="320" y="290" as="sourcePoint" />
            <mxPoint x="370" y="240" as="targetPoint" />
          </mxGeometry>
        </mxCell>
        <mxCell id="ywrrDu13jEAEhH4SM_dy-786" value="dog" style="ellipse;aspect=fixed;fillColor=#bfccdf;strokeColor=#6c8ebf;align=center;spacing=0;fontSize=16;" vertex="1" parent="1">
          <mxGeometry x="410" y="364" width="50" height="50" as="geometry" />
        </mxCell>
        <mxCell id="ywrrDu13jEAEhH4SM_dy-788" value="" style="endArrow=classic;html=1;rounded=0;exitX=0.5;exitY=1;exitDx=0;exitDy=0;entryX=0.5;entryY=0;entryDx=0;entryDy=0;" edge="1" parent="1" source="ywrrDu13jEAEhH4SM_dy-780" target="ywrrDu13jEAEhH4SM_dy-786">
          <mxGeometry width="50" height="50" relative="1" as="geometry">
            <mxPoint x="180" y="430" as="sourcePoint" />
            <mxPoint x="230" y="380" as="targetPoint" />
          </mxGeometry>
        </mxCell>
        <mxCell id="ywrrDu13jEAEhH4SM_dy-789" value="log" style="ellipse;aspect=fixed;fillColor=#bfccdf;strokeColor=#6c8ebf;align=center;spacing=0;fontSize=16;" vertex="1" parent="1">
          <mxGeometry x="620" y="364" width="50" height="50" as="geometry" />
        </mxCell>
        <mxCell id="ywrrDu13jEAEhH4SM_dy-790" value="" style="endArrow=classic;html=1;rounded=0;exitX=0.5;exitY=1;exitDx=0;exitDy=0;entryX=0.5;entryY=0;entryDx=0;entryDy=0;" edge="1" parent="1" source="ywrrDu13jEAEhH4SM_dy-781" target="ywrrDu13jEAEhH4SM_dy-789">
          <mxGeometry width="50" height="50" relative="1" as="geometry">
            <mxPoint x="340" y="430" as="sourcePoint" />
            <mxPoint x="390" y="380" as="targetPoint" />
          </mxGeometry>
        </mxCell>
        <mxCell id="ywrrDu13jEAEhH4SM_dy-794" value="" style="endArrow=classic;html=1;rounded=0;exitX=0.5;exitY=1;exitDx=0;exitDy=0;entryX=0.5;entryY=0;entryDx=0;entryDy=0;" edge="1" parent="1" source="ywrrDu13jEAEhH4SM_dy-786" target="ywrrDu13jEAEhH4SM_dy-778">
          <mxGeometry width="50" height="50" relative="1" as="geometry">
            <mxPoint x="130" y="530" as="sourcePoint" />
            <mxPoint x="180" y="480" as="targetPoint" />
          </mxGeometry>
        </mxCell>
        <mxCell id="ywrrDu13jEAEhH4SM_dy-795" value="cog" style="ellipse;aspect=fixed;fillColor=#fff2cc;strokeColor=#d6b656;align=center;spacing=0;fontSize=16;" vertex="1" parent="1">
          <mxGeometry x="620" y="460" width="50" height="50" as="geometry" />
        </mxCell>
        <mxCell id="ywrrDu13jEAEhH4SM_dy-796" value="" style="endArrow=classic;html=1;rounded=0;exitX=0.5;exitY=1;exitDx=0;exitDy=0;" edge="1" parent="1" source="ywrrDu13jEAEhH4SM_dy-789" target="ywrrDu13jEAEhH4SM_dy-795">
          <mxGeometry width="50" height="50" relative="1" as="geometry">
            <mxPoint x="360" y="520" as="sourcePoint" />
            <mxPoint x="410" y="470" as="targetPoint" />
          </mxGeometry>
        </mxCell>
      </root>
    </mxGraphModel>
  </diagram>
</mxfile>
